<svg width="408" height="83" viewBox="0 0 408 83" fill="none" xmlns="http://www.w3.org/2000/svg">
<g clip-path="url(#clip0_94_40)">
<path d="M321.001 12.1452L294.39 12.1402C292.682 12.1396 291.079 12.9613 290.078 14.348C288.021 17.1993 285.963 20.0501 283.906 22.9008C283.056 24.0778 283.894 25.7251 285.342 25.7251C293.961 25.7267 302.579 25.7284 311.196 25.73C310.166 27.1576 309.136 28.5852 308.105 30.0134H277.333C273.712 30.0134 271.617 25.896 273.74 22.9534C276.31 19.3933 278.879 15.8326 281.448 12.2719C283.451 9.49745 286.659 7.85516 290.073 7.85571C301.413 7.85737 312.752 7.85959 324.092 7.8618C323.061 9.2894 322.031 10.7176 321.001 12.1452Z" fill="white" style="fill:white;fill-opacity:1;"/>
<path d="M123.27 30.0053C114.233 30.0036 105.195 30.002 96.1576 30.0003C92.5369 29.9997 90.442 25.8824 92.5655 22.9403C96.1966 17.91 99.8266 12.8791 103.457 7.84814C106.832 7.8487 110.208 7.8498 113.584 7.8498C109.965 12.8641 106.346 17.879 102.727 22.8933C101.878 24.0702 102.716 25.7175 104.164 25.7175H118.957C120.663 25.7175 122.266 24.8958 123.268 23.5091C127.033 18.2907 130.8 13.0722 134.565 7.85368C137.941 7.85423 141.316 7.85534 144.692 7.85589C140.426 13.7666 136.16 19.6773 131.894 25.5891C129.892 28.363 126.685 30.0058 123.27 30.0053Z" fill="white" style="fill:white;fill-opacity:1;"/>
<path d="M38.3074 25.7154C37.277 27.143 36.2466 28.5711 35.2162 29.9987H4.44319C0.822505 29.9987 -1.2729 25.8814 0.850517 22.9388C3.42048 19.3786 5.98988 15.8179 8.55929 12.2578C10.5613 9.48336 13.769 7.84051 17.1831 7.84106C28.523 7.84328 39.8629 7.84549 51.2028 7.8477C50.1719 9.2753 49.1414 10.7035 48.111 12.1305C39.2412 12.1288 30.3707 12.1272 21.5003 12.1255C19.7932 12.125 18.1899 12.9467 17.1886 14.3344C15.1311 17.1852 13.0736 20.0354 11.0161 22.8868C10.167 24.0642 11.0046 25.7104 12.453 25.7104C21.0713 25.7121 29.6891 25.7137 38.3074 25.7154Z" fill="white" style="fill:white;fill-opacity:1;"/>
<path d="M356.468 14.9754C352.849 19.9897 349.23 25.004 345.611 30.0189L355.738 30.02C359.368 24.9896 362.999 19.9587 366.629 14.9284C368.752 11.9863 366.658 7.86841 363.038 7.86786C355.564 7.86675 348.089 7.86564 340.615 7.86398C342.735 4.92689 343.911 3.06714 346.03 0.130043C342.655 0.129489 339.397 0.130596 336.021 0.130043C328.573 10.4508 321.951 19.6915 314.504 30.0134C317.879 30.0139 321.254 30.0145 324.629 30.015C328.396 24.7965 332.161 19.5775 335.928 14.3596C336.928 12.9724 338.532 12.1512 340.238 12.1512H355.031C356.479 12.1512 357.317 13.7985 356.468 14.9754Z" fill="white" style="fill:white;fill-opacity:1;"/>
<path d="M191.423 30.0134H207.333C208.366 28.5824 209.398 27.151 210.431 25.72C206.767 25.7195 203.103 25.7189 199.438 25.7184C197.99 25.7178 197.152 24.0711 198.002 22.8942C200.59 19.3069 203.179 15.7196 205.767 12.1329C213.017 12.134 220.267 12.1352 227.517 12.1368C228.547 10.7087 229.578 9.28106 230.608 7.85346C223.358 7.8518 216.108 7.85069 208.859 7.84959C210.747 5.23398 212.635 2.61727 214.522 0.00166C211.147 0.00110667 207.772 0.000553333 204.396 0C198.874 7.65094 193.353 15.3019 187.831 22.9534C185.708 25.896 187.803 30.0134 191.423 30.0134Z" fill="white" style="fill:white;fill-opacity:1;"/>
<path d="M256.28 24.2553C255.613 25.1805 254.544 25.7283 253.406 25.7277C248.174 25.7266 242.942 25.7261 237.71 25.7249C236.262 25.7249 235.424 24.0782 236.273 22.9013C236.358 22.7834 236.443 22.6656 236.528 22.5483C237.196 21.6236 238.264 21.0758 239.402 21.0764C245.792 21.0769 252.182 21.0786 258.572 21.0797C257.808 22.1382 257.045 23.1968 256.28 24.2553ZM269.554 7.86003C258.704 7.85837 247.854 7.85615 237.004 7.85449C235.974 9.28209 234.944 10.7102 233.913 12.1378C243.125 12.1395 252.336 12.1412 261.547 12.1428C262.996 12.1428 263.833 13.7901 262.984 14.967C262.544 15.5763 262.104 16.1866 261.664 16.7964C253.106 16.7947 244.549 16.793 235.992 16.7919C232.577 16.7908 229.37 18.4337 227.367 21.2081C226.948 21.7902 226.528 22.3717 226.108 22.9533C223.985 25.8959 226.08 30.0133 229.7 30.0133H256.818C260.231 30.0133 263.438 28.3704 265.44 25.5966C268.009 22.0375 270.577 18.4796 273.145 14.9206C275.268 11.9785 273.174 7.86113 269.554 7.86003Z" fill="white" style="fill:white;fill-opacity:1;"/>
<path d="M187.23 14.921C183.599 19.9519 179.969 24.9828 176.339 30.0131C172.963 30.0126 169.587 30.012 166.212 30.0115C169.831 24.9966 173.45 19.9823 177.069 14.9686C177.918 13.7911 177.08 12.1438 175.632 12.1438H158.122C153.825 18.0988 149.527 24.0532 145.23 30.0082C141.855 30.0076 138.479 30.0065 135.104 30.0065C140.432 22.6228 145.761 15.2386 151.09 7.85547C161.94 7.85713 172.789 7.85879 183.638 7.861C187.259 7.86156 189.353 11.9795 187.23 14.921Z" fill="white" style="fill:white;fill-opacity:1;"/>
<path d="M81.8056 14.9523C79.7486 17.803 77.6911 20.6544 75.6336 23.5046C74.6323 24.8923 73.0285 25.7135 71.3214 25.7129C66.9845 25.7118 62.6476 25.7113 58.3112 25.7102C56.8629 25.7102 56.0252 24.064 56.8744 22.8865C58.9319 20.0357 60.9894 17.185 63.0464 14.3342C64.0476 12.9464 65.6515 12.1253 67.3591 12.1258C71.6955 12.1269 76.0324 12.1275 80.3693 12.128C81.8171 12.128 82.6547 13.7753 81.8056 14.9523ZM88.3752 7.8458C79.9304 7.84414 71.4856 7.84248 63.0414 7.84082C59.6273 7.84027 56.4196 9.48311 54.417 12.2575C51.8482 15.8177 49.2788 19.3784 46.7094 22.9391C44.5859 25.8811 46.6808 29.9985 50.3015 29.9985H75.6396C79.0533 29.9985 82.2603 28.3568 84.2618 25.5823C86.8301 22.0233 89.3984 18.4648 91.9668 14.9058C94.0902 11.9637 91.9953 7.8458 88.3752 7.8458Z" fill="white" style="fill:white;fill-opacity:1;"/>
<path d="M310.039 44.8828C310.693 44.8831 310.948 45.7406 310.4 46.1025L282.441 64.5479C282.363 64.5988 282.399 64.7213 282.492 64.7217H290.992C291.029 64.7215 291.062 64.6995 291.077 64.666L291.759 63.1445C292.063 62.4641 292.735 62.027 293.476 62.0273L306.434 62.0312C306.952 62.0312 307.298 62.5689 307.088 63.0459L306.348 64.7217H309.597C310.073 64.7217 310.391 65.2146 310.199 65.6533L306.471 74.1719C306.32 74.516 305.981 74.7383 305.608 74.7383H302.579C302.206 74.7384 301.869 74.9596 301.718 75.3037L298.803 81.9609C298.652 82.3045 298.313 82.5273 297.94 82.5273L284.353 82.5254C283.667 82.5254 283.211 81.8102 283.497 81.1816L286.434 74.7285C286.462 74.6661 286.416 74.5947 286.348 74.5947H257.615C256.938 74.5947 256.482 73.8958 256.751 73.2695L260.8 63.8408C261.061 63.2323 261.498 62.7167 262.053 62.3604L288.842 45.1504C289.114 44.9762 289.43 44.8828 289.753 44.8828H310.039ZM289.881 47.0332L263.202 64.1729C263.005 64.2996 262.853 64.4801 262.76 64.6953L259.434 72.4434H288.16C288.938 72.4434 289.455 73.2551 289.131 73.9678L286.213 80.375L297.163 80.376L299.764 74.4365C300.256 73.3123 301.36 72.587 302.579 72.5869H304.831L307.332 66.8721H303.063L304.249 64.1816L293.64 64.1777L293.037 65.5195C292.685 66.3411 291.882 66.8719 290.992 66.8721H282.626C281.67 66.872 280.748 66.3281 280.41 65.4268C280.034 64.4248 280.392 63.3308 281.272 62.7471L305.09 47.0332H289.881Z" fill="white" style="fill:white;fill-opacity:1;"/>
<path d="M243.962 65.5976L245.201 62.3445C245.24 62.2405 245.339 62.1719 245.45 62.1719H252.98C253.168 62.1719 253.297 62.3606 253.23 62.5371L251.992 65.7901C251.953 65.8941 251.853 65.9628 251.743 65.9628H244.211C244.023 65.9628 243.895 65.7735 243.962 65.5976Z" fill="white" style="fill:white;fill-opacity:1;"/>
<path d="M195.018 67.2631C194.946 67.4274 194.784 67.5353 194.61 67.5353H186.387C186.27 67.5353 186.196 67.4174 186.243 67.3084L188.994 60.9761C189.065 60.8123 189.228 60.7038 189.402 60.7038H197.642C197.759 60.7038 197.833 60.8212 197.785 60.9313L195.018 67.2631ZM206.027 57.3169H182.966C181.904 57.3169 180.943 57.9516 180.519 58.9321L176.053 69.2578C175.746 69.9689 176.263 70.7634 177.032 70.7634H200.68C201.471 70.7634 202.188 70.2909 202.505 69.5588L207.078 58.9852C207.427 58.1829 206.882 57.3169 206.027 57.3169Z" fill="white" style="fill:white;fill-opacity:1;"/>
<path d="M132.595 57.3176H123.577C123.514 57.3176 123.456 57.3553 123.431 57.4145L117.821 70.3874C117.744 70.565 117.873 70.7642 118.066 70.7642H126.898C126.951 70.7288 126.992 70.7022 127.045 70.6673L132.741 57.5434C132.788 57.4371 132.71 57.3176 132.595 57.3176ZM132 57.871L126.644 70.2108H118.497L123.832 57.871H132Z" fill="white" style="fill:white;fill-opacity:1;"/>
<path d="M119.015 57.3176C119.131 57.3176 119.208 57.4371 119.162 57.5434L115.981 64.8811C115.569 65.8279 114.634 66.4559 113.624 66.4559H102.825L104.266 63.1238H109.171C109.235 63.1238 109.292 63.0856 109.318 63.0264L110.217 60.9292C110.263 60.823 110.186 60.704 110.07 60.704H100.67C100.605 60.704 100.548 60.7417 100.522 60.8009L96.2427 70.6673C96.2169 70.7254 96.1592 70.7642 96.0955 70.7642H87.263C87.0707 70.7642 86.9416 70.565 87.0185 70.3874L92.6281 57.4145C92.6533 57.3553 92.711 57.3176 92.7753 57.3176H119.015Z" fill="white" style="fill:white;fill-opacity:1;"/>
<path d="M84.5167 67.7683L83.2561 70.6594C83.2276 70.7258 83.171 70.7634 83.0864 70.7634H57.0479C56.8502 70.7634 56.7283 70.5576 56.8035 70.3866L62.4136 57.4137C62.4389 57.3551 62.4971 57.3169 62.5603 57.3169H71.5708C71.6834 57.3169 71.7685 57.4403 71.7213 57.5443L67.4821 67.3101C67.4349 67.4141 67.5107 67.5375 67.6233 67.5375H84.3673C84.4848 67.5375 84.5639 67.6598 84.5167 67.7683Z" fill="white" style="fill:white;fill-opacity:1;"/>
<path d="M165.337 62.2803C165.311 62.339 165.254 62.3771 165.19 62.3771H156.746C156.642 62.3771 156.573 62.2704 156.614 62.1757L157.209 60.8007C157.235 60.742 157.292 60.7039 157.355 60.7039L165.783 60.7022C165.896 60.7022 165.978 60.8212 165.924 60.9352L165.337 62.2803ZM163.084 67.4379C163.058 67.4971 163.001 67.5348 162.937 67.5348L154.527 67.5359C154.414 67.5359 154.335 67.4219 154.388 67.3085L155.03 65.8117C155.061 65.7547 155.12 65.7071 155.196 65.7071L163.6 65.7043C163.714 65.7043 163.792 65.8183 163.739 65.9323L163.084 67.4379ZM143.217 57.9472L147.709 60.5816C147.826 60.6507 147.874 60.7968 147.819 60.9219L144.241 69.1499C143.882 70.1376 144.413 70.764 145.311 70.764H168.832C169.614 70.764 170.322 70.2965 170.634 69.5749L175.209 58.9907C175.562 58.184 175.014 57.3208 174.157 57.3208L147.151 57.318C146.936 57.318 146.723 57.2655 146.532 57.1642L145.186 56.4543C145.148 56.4343 145.121 56.3956 145.116 56.3519L144.814 53.8923L143.108 57.6019C143.051 57.7275 143.097 57.8774 143.217 57.9472Z" fill="white" style="fill:white;fill-opacity:1;"/>
<path d="M226.66 67.2631C226.589 67.4275 226.427 67.5354 226.253 67.5354H218.029C217.913 67.5354 217.838 67.4175 217.886 67.3085L220.637 60.9762C220.708 60.8124 220.87 60.7039 221.044 60.7039H229.284C229.401 60.7039 229.475 60.8212 229.427 60.9314L226.66 67.2631ZM244.073 53.8918L241.618 56.3326C241.569 56.3818 241.51 56.4206 241.446 56.4471L239.59 57.2163C239.429 57.2827 239.257 57.317 239.083 57.317H214.609C213.546 57.317 212.585 57.9517 212.161 58.9322L207.696 69.2579C207.388 69.9689 207.905 70.7635 208.674 70.7635H232.323C233.114 70.7635 233.831 70.291 234.147 69.5589L237.907 60.8644C237.953 60.7598 238.029 60.6729 238.127 60.6148L242.768 57.8758C242.825 57.8421 242.868 57.7879 242.888 57.7242L244.073 53.8918Z" fill="white" style="fill:white;fill-opacity:1;"/>
</g>
<defs>
<clipPath id="clip0_94_40">
<rect width="368" height="83" fill="white" style="fill:white;fill-opacity:1;"/>
</clipPath>
</defs>
</svg>
